<svg width="24" height="19" viewBox="0 0 24 19" fill="none" xmlns="http://www.w3.org/2000/svg">
<path fill-rule="evenodd" clip-rule="evenodd" d="M12.2716 0.393914C12.3079 0.416231 12.3442 0.439722 12.3771 0.466736C13.9608 1.7139 14.0771 4.03237 14.0827 8.66234L14.083 9.10321C14.083 14.0293 14.0103 16.4547 12.3771 17.742C12.3442 17.7679 12.3079 17.7925 12.2704 17.8137C11.7854 18.0909 11.2921 18.2083 10.8 18.2083C9.17028 18.2083 7.55459 16.9222 6.29625 15.9215C5.72801 15.4693 4.8692 14.7857 4.57277 14.7551C4.23651 14.7293 3.94594 14.7187 3.68936 14.7117C2.75439 14.6776 2.01508 14.653 1.14573 13.9341C0.0996901 13.0705 0.00362739 11.3592 0 9.85076L0.00103807 9.35691L0.00220971 9.10321L0.00103807 8.84951L0 8.3557C0.00362739 6.84748 0.0996901 5.1371 1.14573 4.27346C2.01626 3.55463 2.75673 3.52879 3.69404 3.49708C3.94946 3.48768 4.23885 3.47829 4.57511 3.45362C4.8692 3.42191 5.72801 2.73832 6.29625 2.28612C7.93537 0.98119 10.1802 -0.800604 12.2716 0.393914ZM21.616 1.44138C24.7947 6.02683 24.7947 12.185 21.616 16.7669C21.445 17.0124 21.172 17.144 20.8943 17.144C20.7209 17.144 20.5463 17.0923 20.3928 16.9854C19.9945 16.7082 19.896 16.1597 20.1737 15.7592C22.9775 11.7187 22.9775 6.49312 20.1737 2.44562C19.896 2.04627 19.9945 1.49776 20.394 1.21939C20.7923 0.94102 21.3383 1.04086 21.616 1.44138ZM10.7883 1.76931C9.77133 1.76931 8.47081 2.80409 7.38822 3.66621C6.34663 4.49427 5.52414 5.14967 4.70399 5.21075C4.34079 5.23659 4.02913 5.24833 3.75497 5.25773C2.87975 5.28709 2.65831 5.30706 2.26347 5.63359C1.81034 6.00665 1.75998 7.3869 1.75761 8.4225L1.7585 8.84128L1.75967 9.10086V9.10556L1.7585 9.36514L1.75761 9.78431C1.75998 10.8207 1.81034 12.2009 2.26347 12.574C2.65714 12.9005 2.87858 12.9193 3.75145 12.951C4.02679 12.9593 4.33961 12.971 4.70399 12.998C5.52414 13.0579 6.34663 13.7133 7.38822 14.5414C8.68054 15.5691 10.281 16.8435 11.3425 16.3138C12.202 15.567 12.3186 13.6267 12.3252 9.52103L12.3255 9.10321C12.3255 4.71039 12.2306 2.6655 11.3425 1.89264C11.1703 1.8069 10.984 1.76931 10.7883 1.76931ZM18.7244 4.33653C20.4057 7.2823 20.4057 10.9352 18.7244 13.8715C18.5615 14.1558 18.2663 14.3143 17.9617 14.3143C17.8129 14.3143 17.6629 14.2768 17.5246 14.1969C17.104 13.9549 16.9587 13.4158 17.2001 12.9953C18.5721 10.5981 18.5721 7.61705 17.2001 5.21274C16.9587 4.78991 17.1052 4.25196 17.5258 4.01C17.9476 3.77275 18.483 3.91487 18.7244 4.33653Z" fill="white"/>
</svg>
