<svg width="24" height="24" viewBox="0 0 24 24" fill="none" xmlns="http://www.w3.org/2000/svg">
<g clip-path="url(#clip0_380_7462)">
<path d="M15.9104 2.74997H8.22042C7.61288 2.71785 7.00551 2.81624 6.43917 3.03851C5.87284 3.26078 5.36068 3.60178 4.93717 4.03855C4.51366 4.47533 4.18861 4.99776 3.98391 5.57067C3.7792 6.14359 3.69959 6.75371 3.75042 7.35997V16.55C3.69725 17.1602 3.77659 17.7746 3.98302 18.3513C4.18944 18.928 4.51807 19.4532 4.9464 19.891C5.37473 20.3288 5.89263 20.6689 6.46463 20.8879C7.03663 21.107 7.64922 21.1998 8.26042 21.16H16.0004C16.608 21.1921 17.2153 21.0937 17.7817 20.8714C18.348 20.6492 18.8602 20.3082 19.2837 19.8714C19.7072 19.4346 20.0322 18.9122 20.2369 18.3393C20.4416 17.7664 20.5213 17.1562 20.4704 16.55V7.35997C20.5228 6.74568 20.4412 6.12734 20.2312 5.54767C20.0213 4.96799 19.688 4.44079 19.2545 4.00248C18.8209 3.56416 18.2974 3.22517 17.72 3.00893C17.1427 2.79268 16.5253 2.70433 15.9104 2.74997Z" stroke="#1B1C17" stroke-width="1.5" stroke-linecap="round" stroke-linejoin="round"/>
<path d="M12.91 2.75V9.88C12.91 10.51 13.45 10.88 13.77 10.39L14.52 9.39C14.5621 9.32176 14.621 9.26543 14.691 9.22636C14.761 9.18729 14.8398 9.16678 14.92 9.16678C15.0002 9.16678 15.079 9.18729 15.149 9.22636C15.2191 9.26543 15.2779 9.32176 15.32 9.39L16.08 10.46C16.4 10.9 16.93 10.59 16.93 9.97V2.75H12.91Z" fill="#1B1C17" stroke="#1B1C17" stroke-linecap="round" stroke-linejoin="round"/>
</g>
<defs>
<clipPath id="clip0_380_7462">
<rect width="18.17" height="19.91" fill="white" transform="translate(3 2)"/>
</clipPath>
</defs>
</svg>
