<svg width="16" height="16" viewBox="0 0 16 16" fill="none" xmlns="http://www.w3.org/2000/svg">
<path fill-rule="evenodd" clip-rule="evenodd" d="M13.7776 6.60303H1.89496C1.61896 6.60303 1.39496 6.37903 1.39496 6.10303C1.39496 5.82703 1.61896 5.60303 1.89496 5.60303H13.7776C14.0536 5.60303 14.2776 5.82703 14.2776 6.10303C14.2776 6.37903 14.0536 6.60303 13.7776 6.60303" fill="black"/>
<path fill-rule="evenodd" clip-rule="evenodd" d="M10.8008 9.20654C10.5248 9.20654 10.2981 8.98254 10.2981 8.70654C10.2981 8.43054 10.5188 8.20654 10.7948 8.20654H10.8008C11.0768 8.20654 11.3008 8.43054 11.3008 8.70654C11.3008 8.98254 11.0768 9.20654 10.8008 9.20654" fill="black"/>
<path fill-rule="evenodd" clip-rule="evenodd" d="M7.84245 9.20654C7.56645 9.20654 7.33978 8.98254 7.33978 8.70654C7.33978 8.43054 7.56045 8.20654 7.83645 8.20654H7.84245C8.11845 8.20654 8.34245 8.43054 8.34245 8.70654C8.34245 8.98254 8.11845 9.20654 7.84245 9.20654" fill="black"/>
<path fill-rule="evenodd" clip-rule="evenodd" d="M4.87791 9.20654C4.60191 9.20654 4.37457 8.98254 4.37457 8.70654C4.37457 8.43054 4.59591 8.20654 4.87191 8.20654H4.87791C5.15391 8.20654 5.37791 8.43054 5.37791 8.70654C5.37791 8.98254 5.15391 9.20654 4.87791 9.20654" fill="black"/>
<path fill-rule="evenodd" clip-rule="evenodd" d="M10.8008 11.7976C10.5248 11.7976 10.2981 11.5736 10.2981 11.2976C10.2981 11.0216 10.5188 10.7976 10.7948 10.7976H10.8008C11.0768 10.7976 11.3008 11.0216 11.3008 11.2976C11.3008 11.5736 11.0768 11.7976 10.8008 11.7976" fill="black"/>
<path fill-rule="evenodd" clip-rule="evenodd" d="M7.84245 11.7976C7.56645 11.7976 7.33978 11.5736 7.33978 11.2976C7.33978 11.0216 7.56045 10.7976 7.83645 10.7976H7.84245C8.11845 10.7976 8.34245 11.0216 8.34245 11.2976C8.34245 11.5736 8.11845 11.7976 7.84245 11.7976" fill="black"/>
<path fill-rule="evenodd" clip-rule="evenodd" d="M4.87791 11.7976C4.60191 11.7976 4.37457 11.5736 4.37457 11.2976C4.37457 11.0216 4.59591 10.7976 4.87191 10.7976H4.87791C5.15391 10.7976 5.37791 11.0216 5.37791 11.2976C5.37791 11.5736 5.15391 11.7976 4.87791 11.7976" fill="black"/>
<path fill-rule="evenodd" clip-rule="evenodd" d="M10.529 3.86075C10.253 3.86075 10.029 3.63675 10.029 3.36075V1.16675C10.029 0.890748 10.253 0.666748 10.529 0.666748C10.805 0.666748 11.029 0.890748 11.029 1.16675V3.36075C11.029 3.63675 10.805 3.86075 10.529 3.86075" fill="black"/>
<path fill-rule="evenodd" clip-rule="evenodd" d="M5.14349 3.86075C4.86749 3.86075 4.64349 3.63675 4.64349 3.36075V1.16675C4.64349 0.890748 4.86749 0.666748 5.14349 0.666748C5.41949 0.666748 5.64349 0.890748 5.64349 1.16675V3.36075C5.64349 3.63675 5.41949 3.86075 5.14349 3.86075" fill="black"/>
<mask id="mask0_380_7949" style="mask-type:luminance" maskUnits="userSpaceOnUse" x="1" y="1" width="14" height="14">
<path fill-rule="evenodd" clip-rule="evenodd" d="M1.33331 1.71948H14.3333V15.0001H1.33331V1.71948Z" fill="white"/>
</mask>
<g mask="url(#mask0_380_7949)">
<path fill-rule="evenodd" clip-rule="evenodd" d="M5.01398 2.71948C3.28531 2.71948 2.33331 3.64148 2.33331 5.31548V11.3481C2.33331 13.0588 3.28531 14.0001 5.01398 14.0001H10.6526C12.3813 14.0001 13.3333 13.0761 13.3333 11.3988V5.31548C13.336 4.49215 13.1146 3.85215 12.6753 3.41215C12.2233 2.95882 11.5266 2.71948 10.6586 2.71948H5.01398ZM10.6526 15.0001H5.01398C2.74398 15.0001 1.33331 13.6008 1.33331 11.3481V5.31548C1.33331 3.09682 2.74398 1.71948 5.01398 1.71948H10.6586C11.798 1.71948 12.74 2.06082 13.3833 2.70548C14.008 3.33282 14.3366 4.23482 14.3333 5.31682V11.3988C14.3333 13.6201 12.9226 15.0001 10.6526 15.0001V15.0001Z" fill="black"/>
</g>
</svg>
