<svg width="42" height="33" viewBox="0 0 42 33" fill="none" xmlns="http://www.w3.org/2000/svg">
<path d="M40.9078 13.2295C38.26 10.6393 35.24 8.59836 31.8475 7.10656C28.4551 5.61475 24.8227 4.86885 20.9504 4.86885C20.0898 4.86885 19.2376 4.90984 18.3936 4.9918C17.5496 5.07377 16.8463 5.18033 16.2837 5.31147L14.8936 3.98361C15.5887 3.78688 16.4326 3.63115 17.4255 3.51639C18.4184 3.40164 19.5934 3.34426 20.9504 3.34426C25.0875 3.34426 28.9433 4.13115 32.5177 5.70492C36.0922 7.27869 39.253 9.44262 42 12.1967L40.9078 13.2295ZM32.8652 21.1475C32.435 20.7541 32.0544 20.4262 31.7234 20.1639C31.3924 19.9016 30.9622 19.6393 30.4326 19.377L27.7021 16.6229C28.4634 16.8197 29.3653 17.2459 30.4078 17.9016C31.4504 18.5574 32.5012 19.4098 33.5603 20.459L32.8652 21.1475ZM36.9858 32.6557L20.9007 16.6721C18.6832 16.7049 16.5567 17.1639 14.5213 18.0492C12.4858 18.9344 10.7731 20.1148 9.38298 21.5902L8.34043 20.5574C9.7305 19.1475 11.3771 17.9426 13.2801 16.9426C15.1832 15.9426 17.227 15.3443 19.4113 15.1475L10.922 6.78688C9.33333 7.34426 7.62884 8.22131 5.80851 9.41803C3.98818 10.6148 2.38298 11.8852 0.992908 13.2295L0 12.1967C1.45626 10.7541 3.04492 9.43443 4.76596 8.2377C6.487 7.04098 8.10875 6.13115 9.63121 5.5082L4.86525 0.786884L5.65957 0L37.8298 31.8689L36.9858 32.6557ZM20.9504 33L16.6312 28.7213C17.1939 28.1639 17.8392 27.7295 18.5674 27.418C19.2955 27.1066 20.0898 26.9508 20.9504 26.9508C21.8109 26.9508 22.6052 27.1066 23.3333 27.418C24.0615 27.7295 24.7069 28.1639 25.2695 28.7213L20.9504 33Z" fill="#222222"/>
</svg>
