<svg width="60" height="60" viewBox="0 0 60 60" fill="none" xmlns="http://www.w3.org/2000/svg">
<circle cx="30" cy="30" r="30" fill="#4C6707"/>
<path fill-rule="evenodd" clip-rule="evenodd" d="M25.4324 21.5C23.9674 21.5 22.7754 22.692 22.7754 24.157V35.843C22.7754 37.308 23.9674 38.5 25.4324 38.5C26.8974 38.5 28.0894 37.308 28.0894 35.843V24.157C28.0894 22.692 26.8974 21.5 25.4324 21.5Z" fill="white"/>
<path fill-rule="evenodd" clip-rule="evenodd" d="M34.5672 21.5C33.1022 21.5 31.9102 22.692 31.9102 24.157V35.843C31.9102 37.308 33.1022 38.5 34.5672 38.5C36.0322 38.5 37.2242 37.308 37.2242 35.843V24.157C37.2242 22.692 36.0322 21.5 34.5672 21.5Z" fill="white"/>
</svg>
